/* XPM */
static char *result[] = {
/* columns rows colors chars-per-pixel */
"13 40 147 2 ",
"   c black",
".  c #010000",
"X  c #000100",
"o  c #000001",
"O  c #010001",
"+  c #020001",
"@  c #060606",
"#  c #070707",
"$  c #000009",
"%  c gray3",
"&  c #090909",
"*  c gray4",
"=  c #653202",
"-  c #6D3400",
";  c #6D3500",
":  c #6D3700",
">  c #7E4302",
",  c #74520D",
"<  c #74520E",
"1  c #75530E",
"2  c #755310",
"3  c #735015",
"4  c #6C553D",
"5  c #78654A",
"6  c #646567",
"7  c #656667",
"8  c #6B6968",
"9  c #6E6C6D",
"0  c #864103",
"q  c #814306",
"w  c #884405",
"e  c #8B5513",
"r  c #976C23",
"t  c #956924",
"y  c #956D24",
"u  c #976C24",
"i  c #9B6926",
"p  c #9A6B27",
"a  c #9A6D28",
"s  c #987A2F",
"d  c #D67200",
"f  c #D77400",
"g  c #D97000",
"h  c #DA7100",
"j  c #DA7101",
"k  c #D87200",
"l  c #D97200",
"z  c #DB7200",
"x  c #DC7000",
"c  c #DC7200",
"v  c #DD7200",
"b  c #DC7300",
"n  c #DD7300",
"m  c #DB7400",
"M  c #DC7400",
"N  c #978A38",
"B  c #918A3D",
"V  c #998B3A",
"C  c #E99110",
"Z  c #EA9010",
"A  c #E99012",
"S  c #EB9012",
"D  c #EC9014",
"F  c #FBB32B",
"G  c #FEB12D",
"H  c #FEB32D",
"J  c #FDB12F",
"K  c #FCB32E",
"L  c #FFB22E",
"P  c #FFB32F",
"I  c #FDB42F",
"U  c #FFB42F",
"Y  c #FEAF34",
"T  c #FBB230",
"R  c #FEB030",
"E  c #FFB030",
"W  c #FFB131",
"Q  c #FFB133",
"!  c #F8B430",
"~  c #F9B431",
"^  c #FAB430",
"/  c #FCB431",
"(  c #FEB035",
")  c #FCB234",
"_  c #FFB234",
"`  c #968B41",
"'  c #968C42",
"]  c #988840",
"[  c #949460",
"{  c #FECE42",
"}  c #FDCD45",
"|  c #FDCD46",
" . c #FEE956",
".. c #FDEA56",
"X. c #FEEA57",
"o. c #FCE75C",
"O. c #FDE75D",
"+. c #FEE75E",
"@. c #FAEA5D",
"#. c #FBEB5F",
"$. c #FDE95C",
"%. c #FDE85D",
"&. c #FEE85D",
"*. c #FCE95F",
"=. c #FDE95F",
"-. c #FEE85E",
";. c #FEE95E",
":. c #FFE95E",
">. c #FFEA5E",
",. c #F9ED5D",
"<. c #FDEC5F",
"1. c #FDEE5E",
"2. c #FBEB60",
"3. c #FDEA60",
"4. c #818181",
"5. c #848485",
"6. c #868686",
"7. c #8D8B87",
"8. c #868788",
"9. c #898A89",
"0. c #8B8B8B",
"q. c #8B8B8D",
"w. c #8D8E8E",
"e. c #908885",
"r. c #959595",
"t. c gray59",
"y. c #979599",
"u. c #FCF9AC",
"i. c #FFF2B2",
"p. c #FFF2B3",
"a. c #FFF2B4",
"s. c #FFF2B8",
"d. c #FCFEFB",
"f. c #FDFEFB",
"g. c #FDFFFB",
"h. c #FBFEFC",
"j. c gray99",
"k. c #FCFCFD",
"l. c #FDFDFD",
"z. c #FCFEFC",
"x. c #FEFEFD",
"c. c #FDFEFE",
"v. c #FDFFFE",
"b. c #FEFEFE",
"n. c #FEFFFE",
"m. c #FEFEFF",
"M. c white",
/* pixels */
"M.b.9               j.x.M.",
"l.c.7 o       o o   k.l.b.",
"6.q.5 1 1 2 2 , < 3 7.8.w.",
"    y Y Y ( ( ( ( F     * ",
"    p _ _ _ _ Q Q !     & ",
"    ' #.2.<.<.<.<.1.    # ",
"    ] o.%.*.*.3.3.,..   # ",
"    ` :.:.:.:.:.:.>.    @ ",
"    ` :.:.:.:.:.:.>.    @ ",
"    N ....X.X. . .@.    @ ",
"    y.d.g.f.f.z.z.h.$   @ ",
"    r.b.M.M.M.b.b.b.    @ ",
"    r.M.M.M.M.M.M.M.    @ ",
"    t.b.M.M.M.M.M.M.    @ ",
"    t.b.M.M.M.M.M.M.    @ ",
"    r.b.M.M.M.M.M.b.    @ ",
"    r.l.b.b.b.b.b.b.    @ ",
"    [ i.p.s.s.a.a.u.    @ ",
"    V O.-.+.+.&.&.=.    @ ",
"    ` :.:.:.:.:.:.>.    @ ",
"    ` :.:.:.:.:.:.>.    @ ",
"    B -.-.-.-.;.;.$.    @ ",
"    s } } } } | | {     @ ",
"    u G L L L L L ~     @ ",
"    u G L L L L L ~     @ ",
"    r G L L L L L /     @ ",
"    r G L L L L L /     @ ",
"    r G L L L L L /     @ ",
"    r G L L L L L /     @ ",
"    t P U H H I I ^     @ ",
"    0 x x h h g g j     @ ",
"    w f l l l k k m .   @ ",
"    e A S C C Z Z D     @ ",
"    i R W J J E E T     @ ",
"    a K I K K I I )     @ ",
"    > v b b b v v b .   % ",
"  X q z c n n M b d +   & ",
"4.9.4 : ; - - ; ; = e.5.0.",
"b.m.6 o o         O v.n.b.",
"b.b.8             o b.l.M."
};
