/* XPM */
static char *result[] = {
/* columns rows colors chars-per-pixel */
"40 40 106 2 ",
"   c #000000",
".  c #573C0D",
"X  c #5A3F0C",
"o  c #593E15",
"O  c #663300",
"+  c #6F3600",
"@  c #6F3902",
"#  c #743B02",
"$  c #793D01",
"%  c #5B4010",
"&  c #744F0B",
"*  c #6C540F",
"=  c #7D560F",
"-  c #784C1A",
";  c #6F5114",
":  c #755310",
">  c #7D5714",
",  c #765019",
"<  c #7C5739",
"1  c #795D3E",
"2  c #6F6F6F",
"3  c #747474",
"4  c #7E7E7E",
"5  c #814100",
"6  c #835B16",
"7  c #82571A",
"8  c #80581A",
"9  c #826411",
"0  c #D56B00",
"q  c #DC6D01",
"w  c #D57301",
"e  c #DB7300",
"r  c #DE7800",
"t  c #E06D00",
"y  c #E27401",
"u  c #E97500",
"i  c #ED7900",
"p  c #816B4A",
"a  c #837457",
"s  c #E78709",
"d  c #E8870C",
"f  c #E78A0F",
"g  c #EC8C13",
"h  c #F38E19",
"j  c #E99112",
"k  c #E7A628",
"l  c #E8A729",
"z  c #EBAB2C",
"x  c #FDAE26",
"c  c #F6AF28",
"v  c #FEAF2D",
"b  c #EBB02F",
"n  c #FCB425",
"m  c #F6B22B",
"M  c #FEB22D",
"N  c #FDAE33",
"B  c #E5B235",
"V  c #EDB232",
"C  c #EEBA3A",
"Z  c #FEB232",
"A  c #F3B838",
"S  c #F8CC3F",
"D  c #F5C742",
"F  c #FDC542",
"G  c #F7CD46",
"H  c #FBCC45",
"J  c #FDCD49",
"K  c #F8D04C",
"L  c #FADA51",
"P  c #FDEA4E",
"I  c #F7E455",
"U  c #FEE656",
"Y  c #FBEA55",
"T  c #FEE75D",
"R  c #F5E95C",
"E  c #FDE95E",
"W  c #FDF05F",
"Q  c #FDE762",
"!  c #F6EB64",
"~  c #FDEB61",
"^  c #FDEE76",
"/  c #7F7F80",
"(  c #858585",
")  c #898987",
"_  c #8A8A89",
"`  c #A1A1A1",
"'  c #F7D486",
"]  c #FDD28B",
"[  c #F9D88B",
"{  c #F8D596",
"}  c #FDD892",
"|  c #FED79C",
" . c #FED99B",
".. c #FFEE8C",
"X. c #FAD8A1",
"o. c #FFF3A4",
"O. c #FEF4AE",
"+. c #FFEFB8",
"@. c #F7F2B3",
"#. c #FCF4B2",
"$. c #FBF6BB",
"%. c #FCFEF5",
"&. c #F6F7F9",
"*. c #FFF4FE",
"=. c #F5FEFC",
"-. c #FEFEFE",
/* pixels */
"-.-.-.-.-.-.-.-.-.-.-.-.-.-.-.                    -.-.-.-.-.-.-.-.-.-.-.-.-.-.-.",
"-.-.-.-.-.-.-.-.-.-.-.-.-.-.-.                    -.-.-.-.-.-.-.-.-.-.-.-.-.-.-.",
"-.-.-.-.-.-.-.-.-.-._ ) ) ) ) > & : : : , : : & 7 ) ) ) ) ( -.-.-.-.-.-.-.-.-.-.",
"-.-.-.-.-.-.-.-.-.-.          Z M M M Z Z N Z c Z           -.-.-.-.-.-.-.-.-.-.",
"-.-.-.-.-.-.-.-.-.-.          Z M Z M Z Z Z Z n Z           -.&.-.-.-.-.-.-.-.-.",
"-.-.-.-.-.-.-._     n M M m m &.%.$.E E ~ ~ ~ Y E e y y y y     2 -.-.-.-.-.-.-.",
"-.-.-.-.-.-.-.)     M M M Z Z =.%.#.~ ~ ~ ~ E T ! e e e e e     3 -.-.-.-.-.-.-.",
"-.-.-.-.-.( ) a * , ' ] ] ] ] #.$...E ~ E E E E ~ l k k k l O O 1 ) ) -.-.-.-.-.",
"-.-.-.-.-.    : m N &.-.&.-.-.T T ~ Y E E E E E ~ E E E E E e w 5     -.-.-.-.-.",
"-.-.-.-.-.    - M n %.-.-.-.-.Y E ~ ~ E ~ ~ ~ ~ E E E E E E q t $     -.-.-.-.-.",
"-.-.`     n n [ %.%.T E E E E q e q q q e q q 0 e E E E E ~ ~ W C y y     ( -.-.",
"-.-.`     Z Z } -.%.T T E T T e y e e e e e e y e T ~ E T E E E V e r     4 -.-.",
"-.&.`     Z M ] -.=.E R G V V g g j j j j j j g h V V D E E E E V e r     _ -.-.",
"-.-.`     M m ] -.%.Q E C e e Z v Z M M M M M c M e e z T E E E V q e     a -.-.",
"&.%.`     M m ] -.%.E E C e e Z M M M Z M M Z m M e e z T T T ~ V e e     / -.&.",
"    o N Z *.-.#.E Y 0 e d m m Z M M M M M M J E E R R J Z m E ~ Q Q Q t q #     ",
"    o Z v -.%.$.I E q y d M M M Z M M M M Z F E E E T H Z M E E T T Q w e +     ",
"    X M v @.#...~ ~ e e g M M M M M Z M J H L E E E E H M M E E E T E e e @     ",
"    % M M Y E T E E e w f M M Z M M M M ~ T T ~ E E E H v M R E ~ T ~ e w +     ",
"    o N m E E E E E e e f v M M M M v v E T ~ Q T T T S m M E E E T E e e +     ",
"    % Z Z E T E E E e e f M M M M H E E T E ~ E P -.-.X.Z v E E E T ~ e e +     ",
"    o v m E Y ~ E E e w f M M M M H T E ~ Y Q Y I -.-.} Z v E E E E T e e #     ",
"    % v M Y E E E E e e f M M J J L ~ E E Q ^ O.+.-.-.[ Z v E E E T Q e e +     ",
"    . N Z ~ E E ~ ~ 0 y s M Z R E E E Y E Q o.-.-.%.-.} v m E E T Q E w w @     ",
"    X v n Y R ~ T ~ q q d M M E ~ E E Y P I o.-.-.-.-.| x M R ~ ~ Y T t y #     ",
"&.-.`     M m H E E E T A e w ~ E E T U -.%.-.%.-.m M H E E E E V e t     / &.&.",
"-.-.`     M Z H E E E T A e e ~ E T E U -.-.-.=.-.M M H T E E T V e y     / -.-.",
"-.-.`     M v F E E E E G l z J J J J S | | | {  .H H L E E E E V e e     4 -.-.",
"-.-.`     M v H E ~ T E E T E m M M c M Z N v v Z T T E ~ E E E V e y     4 -.-.",
"-.-.`     n n H ~ ~ T E E E E m M M M M M M M Z v E E E T ~ ~ E C e i     4 -.-.",
"-.-.-.-.-.    ; x M E E E E E E E E E E E W E R E E E E E T q e $     -.-.-.-.-.",
"-.-.-.-.-.    ; m c E E E ~ Q E E E E E E E E E Q Q E Q E E e w $     -.-.-.-.-.",
"-.-.-.-.-.3 3 p 9 6 J J J J K E E E E E E E E T E b b b b B # $ < 3 3 -.-.-.-.-.",
"-.-.-.-.-.-.-.)     n v M N Z ! I T T T Q T E E ! e w e e e     2 -.-.-.-.-.-.-.",
"-.-.-.-.-.-.-.)     n M M M M Y ~ E E E E E E E Y y y r y u     2 -.-.-.-.-.-.-.",
"-.-.-.-.-.-.-.-.-.-.          n M M M v M M M M Z           &.-.-.-.-.-.-.-.-.-.",
"-.-.-.-.-.-.-.-.-.-.          Z M M M x M x m n M           -.-.-.-.-.-.-.-.-.-.",
"-.-.-.-.-.-.-.-.-.-.( ( ( ( ( 8 = 6 = 6 = 6 > = 6 ( ( ( ( ( -.-.-.-.-.-.-.-.-.-.",
"-.-.-.-.-.-.-.-.-.-.-.-.-.-.-.                    -.-.-.-.-.-.-.-.-.-.-.-.-.-.-.",
"-.-.-.-.-.-.-.-.-.-.-.-.-.-.-.                    -.-.-.-.-.-.-.-.-.-.-.-.-.-.-."
};
