/* XPM */
static char *result[] = {
/* columns rows colors chars-per-pixel */
"35 40 124 2 ",
"   c #000000",
".  c #421F00",
"X  c #402000",
"o  c #5B2C01",
"O  c #5A3000",
"+  c #622C00",
"@  c #692F00",
"#  c #603502",
"$  c #6C3200",
"%  c #673900",
"&  c #693802",
"*  c #763700",
"=  c #773A00",
"-  c #7B3C00",
";  c #5E5720",
":  c #5E5B28",
">  c #605B3E",
",  c #636322",
"<  c #6D6824",
"1  c #6E692C",
"2  c #736C25",
"3  c #797027",
"4  c #5E5F5E",
"5  c #77644F",
"6  c #78664D",
"7  c #7C7B5B",
"8  c #656565",
"9  c #6F6F6F",
"0  c #7D7D61",
"q  c #747169",
"w  c #747373",
"e  c #797773",
"r  c #777876",
"t  c #717579",
"y  c #7C7C7C",
"u  c #996118",
"i  c #A96B12",
"p  c #817D2D",
"a  c #837A34",
"s  c #D66D00",
"d  c #DA6D00",
"f  c #CE7500",
"g  c #D47200",
"h  c #DB7200",
"j  c #DE7901",
"k  c #E06B00",
"l  c #EC6F00",
"z  c #E37400",
"x  c #EC7400",
"c  c #E67A00",
"v  c #80684C",
"b  c #A38E30",
"n  c #E98E0F",
"m  c #E78E12",
"M  c #EB8B12",
"N  c #E79114",
"B  c #EA9113",
"V  c #EC9219",
"C  c #F09015",
"Z  c #F1941A",
"A  c #F0A21C",
"S  c #DFAA22",
"D  c #E6A223",
"F  c #ECA225",
"G  c #E6A62B",
"H  c #E7AD2B",
"J  c #ECAD2C",
"K  c #F1AC2E",
"L  c #FEAE2D",
"P  c #E7B22E",
"I  c #EAB02F",
"U  c #F7B32D",
"Y  c #FDB12E",
"T  c #F6A733",
"R  c #E5B331",
"E  c #EBB331",
"W  c #EEB836",
"Q  c #F0B635",
"!  c #FDB331",
"~  c #F0B836",
"^  c #F0BE3A",
"/  c #EDC13B",
"(  c #A48C77",
")  c #EBBB40",
"_  c #EFA955",
"`  c #F5C341",
"'  c #FBC741",
"]  c #FCCC45",
"[  c #FDCD48",
"{  c #FBD247",
"}  c #F7D34A",
"|  c #FDD34B",
" . c #FBD94F",
".. c #FDDB53",
"X. c #FBEE52",
"o. c #FEE65D",
"O. c #FDE95E",
"+. c #FEEC61",
"@. c #FDEF68",
"#. c #858585",
"$. c #888583",
"%. c #878987",
"&. c #898A84",
"*. c #8A8A8A",
"=. c #8B8E90",
"-. c #918F90",
";. c #8D9090",
":. c #949494",
">. c #97989A",
",. c #9B9B9B",
"<. c #A3AEA6",
"1. c #AEAEAD",
"2. c #EBB880",
"3. c #F4BE80",
"4. c #EFBD90",
"5. c #EEC293",
"6. c #F7C395",
"7. c #FBF5A7",
"8. c #FEF3B7",
"9. c #CDCDCD",
"0. c #D3D3D3",
"q. c #D8D8D8",
"w. c #FDFCF7",
"e. c #FEFEFE",
/* pixels */
"e.e.e.e.e.e.e.e.e.e.e.e.*.                  -.e.e.e.e.e.e.e.e.e.e.e.e.",
"e.e.e.e.e.e.e.e.e.e.e.e.*.                  =.e.e.e.e.w.e.e.e.e.e.e.e.",
"e.e.e.e.e.e.e.9.*.*.*.*.0 1 2 # $ $ $ @ $ $ 5 *.*.*.*.9.e.e.e.e.e.e.e.",
"e.e.e.e.e.e.e.:.        < o.o.h h h h h h h o         :.e.e.e.e.e.e.e.",
"e.e.e.e.e.e.w.:.        < o.o.z h h j j j g O         :.e.e.e.e.e.e.e.",
"e.e.e.e.e.    8 w.e.h z h h s ! Y Y Y Y O.o.G c z z x +     e.e.e.e.e.",
"e.e.e.e.e.    8 e.e.h k g h h U Y Y Y Y +.o.S h h g d o     e.e.e.e.e.",
"e.e.0.*.*.9 q ( 5.4.M m M m M ] ] ] ] ] o.o./ G G G G u # & *.*.q.e.e.",
"e.e.,.    e.w.4.g g U ! Y Y L o.o.+.+.+.o.o.o.+.O.O.X.F h c     1.e.e.",
"e.e.,.    e.e.5.g h ! L ! K Y +.o.O.O.o.+.+.o.+.O.O.O.F g z     1.e.e.",
"e.e.,.    e.e.6.h h ! Y ] O.o.o.o.F d d s d E +.O.O.O.F g z     1.e.e.",
"w.e.,.    e.e.6.h g ! Y ] o.o.+.O.H h h h g W o.o.O.o.D f x     1.e.e.",
"y #.y w t 3.2._ m m ] ]  .O.+.J R D N B m N D J J o.+.` G J $ $ v *.$.",
"    4 e.e.h d M L L O.O.o.O.+.h g B Y Y Y Y n j d +.o.O.+.+.d d X     ",
"    4 e.e.s d M U L o.o.O.O.+.j h B Y Y L Y m h d +.o.+.o.@.h h X     ",
"    4 e.e.s h M Y Y o.o.P h h ! ! Y Y Y ! ! } +.o.L L | o.+.s j X     ",
"    4 e.e.d k M L Y O.O.E s g ! Y ! Y Y Y Y { O.O.Y ! | o.+.j j X     ",
"    4 e.e.d h M Y U O.O.E h h ! Y Y Y Y { [ ..o.O.Y ! | o.+.g h X     ",
"    4 e.e.s h M Y Y +.O.E g h ! Y Y Y Y +.o.O.O.O.Y U | o.+.g h X     ",
"    4 e.e.s d M Y Y o.o.E h h Y Y Y L Y o.O.O.O.O.Y U | o.+.h h X     ",
"    4 e.e.s j M Y Y o.o.E h h ! U { O.O.O.o.O.O.+.L ! | +.+.j h X     ",
"    4 e.w.d h M L Y O.o.E h g U Y [ O.O.O.O.O.O.o.! U | o.+.g h X     ",
"    > 8.7.j h M Y Y O.O.E g s } ] o.o.o.O.O.O.O.O.! U | +.+.h h X     ",
"    ; o.o.k h M Y ! X.o.I g s O.o.o.o.o.O.O.o.o.o.Y ! | o.+.s j X     ",
"    ; o.o.h h M Y Y O.O.P s s +.o.O.O.O.O.o.o.+.+.L L [ o.+.h j .     ",
"    ; o.o.h h M L Y O.O.O.O.O.L U | O.O.O.o.' Y U +.o.+.o.+.h h .     ",
"    ; o.o.k h m Y L O.o.o.o.O.Y Y { o.o.o.O.' U Y +.o.o.+.+.d g .     ",
"w r 7 a p T K F V B | [ ..o.+.` [ [ [ [ [ | [ [ [ o.+.` R P = = 6 e y ",
"e.e.>.    @.+.~ h g ! L } O.o.o.o.] L Y U Y { o.o.O.o.D g l     <.e.w.",
"e.e.,.    +.+.Q h h Y Y ] O.O.o.o.] Y L Y Y [ o.o.o.o.F g z     1.e.e.",
"e.e.,.    +.o.Q h g Y Y U L Y O.O.O.o.O.O.O.O.o.o.O.O.F g z     1.e.e.",
"e.e.,.    X.O.) h d ! ! L ! ! O.O.O.o.o.+.o.O.O.+.O.X.A d l     1.e.e.",
"e.e.9.r y a a b J J V Z B B C [ ] [ { ] ] ] ^ J I J H i * - y y 0.e.e.",
"e.e.e.e.e.    : +.+.d h h h j L ! L Y ! Y ! B g j h s O     e.e.e.e.e.",
"e.e.e.e.e.    , O.O.j z h d d ! U ! Y Y Y ! V h h h c o     e.e.e.e.e.",
"e.e.e.e.e.e.w.:.        2 +.+.z h j j h h h +         :.w.e.e.e.e.e.e.",
"e.e.e.e.e.e.e.:.        1 o.o.z h h h h z h +         :.e.e.e.e.e.e.e.",
"e.e.e.e.e.e.e.9.#.#.#.#.7 2 3 % $ $ * $ $ & 5 %.#.#.#.9.e.e.e.e.e.e.e.",
"e.e.e.e.e.e.e.e.e.e.e.e.&.                  ;.w.e.e.e.e.e.e.e.e.e.e.e.",
"e.e.e.e.e.e.e.e.e.e.e.e.*.                  -.e.e.e.e.e.e.e.e.e.e.e.e."
};
