/* XPM */
static char *result[] = {
/* columns rows colors chars-per-pixel */
"35 40 137 2 ",
"   c #000000",
".  c #363027",
"X  c #3A3A3A",
"o  c #482601",
"O  c #402609",
"+  c #5E3600",
"@  c #5C3C0B",
"#  c #553C12",
"$  c #6D2F00",
"%  c #653300",
"&  c #6C3500",
"*  c #613B00",
"=  c #743C02",
"-  c #7B3C00",
";  c #5E400F",
":  c #7C4203",
">  c #75540E",
",  c #7D560F",
"<  c #724D12",
"1  c #7D4F12",
"2  c #755312",
"3  c #705816",
"4  c #7A5810",
"5  c #755C41",
"6  c #796242",
"7  c #7B634A",
"8  c #757573",
"9  c #767974",
"0  c #7B7B7B",
"q  c #805711",
"w  c #9F6311",
"e  c #AE6708",
"r  c #A5732F",
"t  c #A07C3B",
"y  c #DB6E00",
"u  c #D67401",
"i  c #DB7200",
"p  c #D27901",
"a  c #DD7900",
"s  c #E17400",
"d  c #E17801",
"f  c #EC7800",
"g  c #82765B",
"h  c #82785A",
"j  c #EE8D15",
"k  c #ED8D19",
"l  c #E59315",
"z  c #EB9215",
"x  c #E5941B",
"c  c #EB9218",
"v  c #E99725",
"b  c #E89922",
"n  c #E5AC2A",
"m  c #EAAC2C",
"M  c #FEAC27",
"N  c #F5AE2E",
"B  c #FDAE2C",
"V  c #FDB626",
"C  c #FDB922",
"Z  c #F7B12D",
"A  c #FDB22D",
"S  c #FEBA2A",
"D  c #ECAE32",
"F  c #F1AB30",
"G  c #EDB232",
"H  c #EFBD39",
"J  c #FDB232",
"K  c #FAB23D",
"L  c #F0C23D",
"P  c #E89F5B",
"I  c #F3AE4E",
"U  c #F2BE40",
"Y  c #E69F60",
"T  c #E7AD70",
"R  c #EAB472",
"E  c #EBB37D",
"W  c #F2C142",
"Q  c #FCC541",
"!  c #F3C843",
"~  c #FDCC44",
"^  c #FECC4A",
"/  c #FBD046",
"(  c #F9DA41",
")  c #FDD44D",
"_  c #FAD94C",
"`  c #FCE84D",
"'  c #FCE754",
"]  c #FCE956",
"[  c #FEE75D",
"{  c #F5EC5D",
"}  c #FDE95E",
"|  c #FBF05E",
" . c #FCC96E",
".. c #FECA74",
"X. c #F8CB78",
"o. c #FEE662",
"O. c #F7EB62",
"+. c #FDEB61",
"@. c #FAEB6C",
"#. c #FEF064",
"$. c #777F84",
"%. c #848484",
"&. c #868986",
"*. c #89878A",
"=. c #8B8A8B",
"-. c #A4A5A6",
";. c #A6A3A8",
":. c #BDBEBD",
">. c #F0C183",
",. c #FDD28A",
"<. c #FED595",
"1. c #FED29B",
"2. c #FCDB99",
"3. c #FDE59F",
"4. c #FFCEA3",
"5. c #FFDFB6",
"6. c #FBF2A7",
"7. c #FDF4AD",
"8. c #FAF8AF",
"9. c #FEE4B6",
"0. c #FCE4BD",
"q. c #FCF4B5",
"w. c #FDF3BA",
"e. c #C2C2C2",
"r. c gray79",
"t. c #D5D6D6",
"y. c gainsboro",
"u. c #FFF4C4",
"i. c #FBF9C3",
"p. c #FCF6CB",
"a. c #FEF6D3",
"s. c #FFFAD6",
"d. c #E2E2E2",
"f. c #FEFAE6",
"g. c #FCFEF5",
"h. c #F6FEFF",
"j. c #FEFEFE",
/* pixels */
"j.j.j.j.j.j.j.j.j.j.j.j.-.                  8 j.j.j.j.j.j.j.j.j.j.j.j.",
"j.j.j.j.j.j.j.j.j.j.j.j.-.                  9 j.j.j.j.j.j.j.j.j.j.j.j.",
"j.j.j.j.j.j.j.t.*.*.*.=.g > < 2 2 < 2 1 & % 5 *.*.*.&.r.j.j.j.j.j.j.j.",
"j.j.j.j.j.j.j.;.        @ J J A A J J J s i =         %.j.j.j.j.j.j.j.",
"j.j.j.j.j.j.j.-.        @ A V A A J J J i u :         0 j.j.j.j.j.j.j.",
"j.j.j.j.j.    # V B A J X.j.j.O.+.+.} O.#.+.8.j.g.i a =     j.j.j.j.j.",
"j.j.j.j.j.    # B A A J X.j.j.o.[ [ +.} +.O.6.j.j.y i =     j.j.j.j.j.",
"j.j.d.=.=.3 < t ,.,.,.,.2.w.u.O.[ +.[ ] 7.6.a.j.j.T T r $ & =.=.r.j.j.",
"j.j.e.    C C ..j.j.j.g.p.o.} ] } [ [ ` j.j.j.g.j.h.j.E p i     =.j.j.",
"j.j.:.    S J ..j.j.g.g.i.} } } } } [ [ j.j.j.j.j.j.j.R y i     =.j.j.",
"j.j.e.    S J ..j.j.} ' U y y y i j B B g.j.j.j.j.' ] D s s     *.j.j.",
"j.j.:.    J S  .g.h.] [ W a u i u k A M h.j.j.g.j.' o.n u d     *.g.j.",
"%.&.h 4 4 1.4.2.w.8.G G I E E E E >.<.1.,.2.3.q.w.[ +.H l x & & 7 &.%.",
"    O A A j.j.i.] [ i u P j.j.j.j.j.j.j.J A ~ [ [ [ [ ~ A A i y %     ",
"    O J A j.g.i.] [ i u Y j.j.j.j.j.j.g.J A ~ [ [ } [ ^ A A i i %     ",
"    O J A } { L J B g.j.j.j.j.j.j.j.j.h.} [ ) J A +.[ ~ A A i i %     ",
"    O N A | O.( Z A j.g.j.j.j.j.j.j.j.j.[ ] ) N A +.[ ~ A A i i %     ",
"    O A A | [ _ J J g.j.j.j.j.j.j.s.q.7.} [ ^ J A +.[ ~ A A i i %     ",
"    O A A | { _ Z J g.j.j.j.j.j.j.q.+.' +.[ ^ A A +.[ ~ A A i i %     ",
"    O J B O.` _ Z J g.j.j.j.g.j.j.w.o.[ [ [ ^ J A +.[ ~ A A y i %     ",
"    O K B j.h.0.K J j.g.j.g.j.o.[ ] +.+.[ [ ^ J A } [ ~ A A i i %     ",
"    O A B h.j.9.V Z g.j.j.g.j.o.o.+.} } } } ^ A A +.[ ~ A A y i %     ",
"    . 2.<.j.j.9.V A g.j.f.7.7.[ o.[ } } } [ ^ J A +.[ ~ A A i i %     ",
"    X j.j.j.j.5.Z B h.g.i.[ } +.[ [ } } [ | ^ J A +.[ ~ B A i i %     ",
"    X j.j.j.j.9.M M g.j.i.o.} } } } [ [ +.{ ) J A +.[ ~ A A i i %     ",
"    X j.j.j.j.g.g.g.M B W [ [ [ } [ +.} i i m } [ [ [ ~ A A i i %     ",
"    X j.j.j.j.j.j.h.A J Q [ +.[ } [ [ O.s i n [ } [ +.~ B A y i %     ",
"%.0 8 %.%.g.j.f.7.q.~ ^ ~ ^ ^ n G G m D F m ! } } / ~ Z z x = = 6 0 8 ",
"j.j.:.    j.h.u.[ +.[ [ ) A J i i i i y +.[ } } [ A A c i a     =.j.j.",
"j.j.:.    j.h.p.@.[ } [ ) A J u i i y y { [ [ [ [ A A j i i     =.j.j.",
"j.j.:.    s u x ] +.} } +.+.+.} +.+.+.+.+.+.} } +.A A k i d     =.j.j.",
"j.j.e.    f s v } } } } +.} } } } [ [ [ ] } } [ [ A A j d u     =.j.j.",
"j.j.y.0 0 - = w n G D G L } } } } } } } ^ / ^ / / z c e - = $.0 :.j.j.",
"j.j.j.j.j.    o d i u i x } } } [ } } } A A J J J u u +     g.j.j.j.j.",
"j.j.j.j.j.    o f d s u b } | } [ } } O.J J V A S i d &     j.j.j.j.j.",
"j.j.j.j.j.j.g.-.        @ A A A A A A V i a :         %.g.h.j.j.j.j.j.",
"j.j.j.j.j.j.j.-.        ; A V A A A A A d u -         %.j.j.j.j.j.j.j.",
"j.j.j.j.j.j.j.t.*.%.%.*.g , q q , 4 , , = * 5 %.*.%.%.r.h.j.j.j.j.j.j.",
"j.j.j.j.j.j.j.j.j.j.j.j.-.                  8 j.j.j.j.j.j.j.j.j.j.j.j.",
"j.j.j.j.j.j.j.j.j.j.j.j.;.                  9 j.j.j.j.j.j.j.j.j.j.j.j."
};
