/* XPM */
static char *result[] = {
/* columns rows colors chars-per-pixel */
"23 40 101 2 ",
"   c #000000",
".  c #0E0301",
"X  c gray3",
"o  c #130C02",
"O  c gray9",
"+  c #1C1C1C",
"@  c #3A2B05",
"#  c #3E3E10",
"$  c #402C05",
"%  c #443F16",
"&  c #613503",
"*  c #6C3300",
"=  c #42400D",
"-  c #7A520C",
";  c #7D5715",
":  c #444443",
">  c #C96600",
",  c #C76801",
"<  c #CA6800",
"1  c #DB6D00",
"2  c #D67200",
"3  c #DC7100",
"4  c #DC7209",
"5  c #E07000",
"6  c #867C6D",
"7  c #DD840A",
"8  c #D78918",
"9  c #E58E14",
"0  c #EA8E14",
"q  c #EB9112",
"w  c #EE961B",
"e  c #FAB11E",
"r  c #DDA92A",
"t  c #DDA931",
"y  c #E8A727",
"u  c #E5AB2D",
"i  c #EBAD2C",
"p  c #FEAF27",
"a  c #FCAE2D",
"s  c #E7B22E",
"d  c #FBB422",
"f  c #F6B12B",
"g  c #FDB22D",
"h  c #F7BA2B",
"j  c #FDBA2D",
"k  c #E5A938",
"l  c #F1A733",
"z  c #F1AF33",
"x  c #FEAC35",
"c  c #FEAF3A",
"v  c #E5B230",
"b  c #F5B435",
"n  c #FCB233",
"m  c #FAB933",
"M  c #FCB638",
"N  c #F1BC3B",
"B  c #FCBA39",
"V  c #86807B",
"C  c #FEB641",
"Z  c #FBBA45",
"A  c #F9BF52",
"S  c #F4CD41",
"D  c #F0CD48",
"F  c #FBD24C",
"G  c #F7C558",
"H  c #FEC25C",
"J  c #FAD651",
"K  c #FEDD56",
"L  c #F6EA4F",
"P  c #FAED4E",
"I  c #FCE457",
"U  c #FCEB54",
"Y  c #FDE75D",
"T  c #FDE95E",
"R  c #FEE662",
"E  c #FDEB61",
"W  c #FFE86B",
"Q  c #858585",
"!  c #878988",
"~  c gray54",
"^  c #908681",
"/  c #959595",
"(  c #B6B6B6",
")  c #B3B0BC",
"_  c #BBBCBC",
"`  c #FDF3A6",
"'  c #FFF4AD",
"]  c #FBF4B2",
"[  c #BDBEC0",
"{  c #FBEEC7",
"}  c #FFEBCA",
"|  c #FDF3CB",
" . c #FDF7D1",
".. c #FEF9D4",
"X. c #ECECEC",
"o. c #FDFCE2",
"O. c #FBFFEC",
"+. c #EFEFF0",
"@. c #F5F5F5",
"#. c #FDFCF3",
"$. c #FEFEFE",
/* pixels */
"$.$.$.$.$.$.$._               +.$.$.$.$.$.$.$.",
"$.$.$.$.$.$.$._               +.$.$.$.$.$.$.$.",
"$.$.$.$.$.! ! 6 - - * * * * & ^ ~ / $.$.$.$.$.",
"$.$.$.$.$.X   $ g g 2 3 3 3 3 .   + $.$.$.$.$.",
"$.$.$.$.$.X   @ g g 2 3 5 5 2 .   + $.$.$.$.$.",
"$.$.(     @.$. .T T E E U n d M n u     X.$.$.",
"$.$.(     @.$. .Y T T T K n g g x r     X.$.$.",
"$.$.(     @.$.| F F T T I w w w w 8     X.$.$.",
"$.$.(     @.$.{ f g Y E J 2 2 2 2 >     X.$.$.",
"$.$.(     @.$.} n n E T J 2 1 1 3 <     X.$.$.",
"    : $.$.L U S 3 2 T T E E T m n n f j o   O ",
"    : $.$.R R D 3 3 E T Y T T n g n g n o   O ",
"    : $.$.z s v i y i b N E T n n g g n o   O ",
"    : $.$.4 1 9 Y Y 1 5 7 T Y n g g g n o   O ",
"    : #.$.1 3 9 E R 1 3 7 E T n g g d n o   O ",
"    # P L 2 3 9 T T f f B Y T n n g g n o   O ",
"    % T Y 4 3 9 T Y f g m T T f g g g n o   O ",
"    % T Y 3 3 9 T E f g m E T n g g g n o   O ",
"    = T Y 3 3 0 Y E f g m E T n n g d n o   O ",
"    = T Y 3 1 9 Y T f f m T Y n g g g n o   O ",
"    = T T 2 3 9 Y E g f m E Y g g g g n o   O ",
"    = Y Y 3 3 9 T T f a h T Y x n g g n o   O ",
"    = E Y 3 3 9 E T f a Z ` ` n g n g n o   O ",
"    % R T 3 5 9 T E f g A $.$.n g g d n o   O ",
"    % I U 3 3 9 T E f x Z $.$.x g g g n o   O ",
"    % E Y 3 3 9 R I #.$.#.$.$.n g g f n o   O ",
"    = T T 3 3 9 R I $.$.$.$.$.n n g d n o   O ",
"    = Y Y 0 q l ` ` O.$.#.] ] n g g g n o   O ",
"    = Y Y n g H $.#.$.$.o.W R g g g g n o   O ",
"    % E T f e G #.$.O.$.o.T T M g p n C o   O ",
"$.$.)     @.$.#.$.$.P Y F 3 1 3 2 <     X.$.$.",
"$.$.(     @.$.O.$.$.E T J 2 3 2 3 ,     X.$.$.",
"$.$.(     @.$.o.] ' T U K q q q w 4     +.$.$.",
"$.$.(     @.$...Y E T E K n x x x t     X.$.$.",
"$.$.(     @.$...E E E E I g m h n k     X.$.$.",
"$.$.$.$.$.X   @ g n 2 3 3 3 2 .   O $.$.$.$.$.",
"$.$.$.$.$.X   @ c M 2 3 3 5 3 .   O $.$.$.$.$.",
"$.$.$.$.$.! Q 6 ; ; * * * * * V ! / $.$.$.$.$.",
"$.$.$.$.$.$.$.[               @.$.$.$.$.$.$.$.",
"$.$.$.$.$.$.$._               +.$.$.$.$.$.$.$."
};
