/* XPM */
static char *result[] = {
/* columns rows colors chars-per-pixel */
"23 40 88 1 ",
"  c #000000",
". c #01000A",
"X c #0B0B0B",
"o c #210E00",
"O c #251200",
"+ c #2F1E05",
"@ c #351B07",
"# c #4A1D01",
"$ c #511B02",
"% c #6B3400",
"& c #5C541C",
"* c #724F0E",
"= c #7D550E",
"- c #734E14",
"; c #665C1F",
": c #755312",
"> c #7D5711",
", c #795418",
"< c #5C5D5D",
"1 c #D76F00",
"2 c #DB6E00",
"3 c #D77101",
"4 c #DB7200",
"5 c #DD7B03",
"6 c #DB7B09",
"7 c #DA7813",
"8 c #D77419",
"9 c #DE791B",
"0 c #E06F01",
"q c #E07603",
"w c #E27A06",
"e c #E07D08",
"r c #857A6D",
"t c #897C6F",
"y c #DF810A",
"u c #D6880B",
"i c #DF8510",
"p c #EC9317",
"a c #ED9318",
"s c #FAAC27",
"d c #FAAE2C",
"f c #EFB32E",
"g c #FFB327",
"h c #F6B32C",
"j c #FDB12D",
"k c #FAAD31",
"l c #FEB232",
"z c #F9C33E",
"x c #F9C643",
"c c #F1CB44",
"v c #FECB45",
"b c #FBCD4A",
"n c #FAD647",
"m c #FAD54F",
"M c #F7DB52",
"N c #FBE94C",
"B c #FDE156",
"V c #F4E854",
"C c #FDEA56",
"Z c #F7E55D",
"A c #FCE55B",
"S c #F6EB5B",
"D c #FDE95D",
"F c #F5E563",
"G c #FDE563",
"H c #F5ED61",
"J c #FDEB62",
"K c #FCE66A",
"L c #868687",
"P c #868788",
"I c #8C8B8C",
"U c #9D9D9E",
"Y c #A2A2A2",
"T c #ACADAD",
"R c #ACB0B3",
"E c #FADC88",
"W c #FADEBA",
"Q c #F3EEAC",
"! c #FDF5AC",
"~ c #FCF5B6",
"^ c #FDF6B8",
"/ c #CACBCC",
"( c #D4D4D4",
") c #F4E4C6",
"_ c #F5E3CE",
"` c #F6F6F6",
"' c #FDFEF6",
"] c #FEFEFE",
/* pixels */
"]]]]]]]/       (]]]]]]]",
"]]]]]]]/       (]]]]]]]",
"]]]]]IPt-:::*%%tPI]]]]]",
"]]]]]X @dlllk44O X]]]]]",
"]]]]`X @lhgkd44O X]]]]]",
"]]U  `']]]814hl5q4  T]]",
"]]U  `]'']946lly41  T]]",
"]]U  Q^~^^744lj544  T]]",
"]]U  VDDCJ634lje44  T]]",
"]]U  VADDS315jj511  R]]",
"  <]'']W21ljjjjjllwq$  ",
"  <]]]]_44hjjklhdh13#  ",
"  <]]]]_44djspazbx11#  ",
"  <]]]]_34djd44MGD44#  ",
"  <]]]]_34djd41MDD43#  ",
"  <]]]])43djd31MJA43#  ",
"  <']]')33djd41MSD43#  ",
"  <]]!!E44xvx41MDZ43#  ",
"  <]'NDn4qZAM44MDD44#  ",
"  <]'DDm42ADA41MSD43#  ",
"  &GACDm04ADA41MJZ44#  ",
"  &DDDDm04ZDM44MDA43#  ",
"  &DDDDm24ADCaaMDD43#  ",
"  &DDDDm24AAAjjBDZ44#  ",
"  &DCDDm02AAAjjBDD43#  ",
"  &DADDmq4AABjjBAD43#  ",
"  &DDDDm04AABjlBDA44#  ",
"  &DDAJm24ADAvvBAD43#  ",
"  &DDDDm04ADJAAAJA43#  ",
"  ;KCDDm40ZDJAJJJDqq#  ",
"]]U  fdjdj416ADe23 .T]]",
"]]U  hjjdd646ADy23  T]]",
"]]Y  cbvvv446AJy44  T]]",
"]]U  FSAKBw4eJDu41  T]]",
"]]U  HDHSH616DJi54  T]]",
"]]]]`X @jjjjd14o X]]]]]",
"]]]]]X +jjjjs44O X]]]]]",
"]]]]]LPt,==>=%%rLL]]]]]",
"]]]]]]]/       (]]]]]]]",
"]]]]]]]/       (]]]]]]]"
};
