/* XPM */
static char *result[] = {
/* columns rows colors chars-per-pixel */
"50 50 20 1 ",
"  c black",
". c #060606",
"X c #080400",
"o c #1A0C02",
"O c #1E150C",
"+ c #272727",
"@ c #343434",
"# c gray23",
"$ c #523A20",
"% c #414141",
"& c #4E4E4E",
"* c gray36",
"= c #626262",
"- c DimGray",
"; c #833E0A",
": c #8C430B",
"> c #985B26",
", c #A57441",
"< c #B9B9B9",
"1 c None",
/* pixels */
"1111111111111111111            1111111111111111111",
"11111111111111     -- %----- --     11111111111111",
"1111111111     .------+ --  -------     1111111111",
"111111111 -----= -------  -------  ----- 111111111",
"1111111  --------                --------@ 1111111",
"11111    ------=   ,,:::::,,:::    ----- @-  11111",
"111  ---- --   X:::,,:::::,,:::::,,     -----  111",
"111  -----  ,,:::::,,:::::,,:::::,,:::  -----  111",
"11 &----- ::,,:::::,,:::::,,:::::,,::::: @---   11",
"11 &----- ::,,:::::,,:::::,,:::::,,::::: @-  -- 11",
"11   --  :::,,:::::,,:::::,,:::::,,:::::,$ ---- 11",
"  ---    :::,,:::::,,:::::,,:::::,,:::::,$ -----  ",
"  ---  :::::,,:::::,,:::::,,:::::,,:::::,>:  ---  ",
"  ---  :::::,,:::::,,:::::,,:::::,,:::::,>:  ---  ",
"  ---  :::::,,:::::,,:::::,,:::::,,:::::,>:  ---  ",
"       :::::,,:::::,,:::::,,:::::,,:::::,>:       ",
"  ---  :::::,,:::::,,:::::,,:::::,,:::::,>:  ---  ",
"  ---  :::::,,:::::,,:::::,,:::::,,:::::,>:  ---  ",
"  ---  :::::,,:::::,,:::::,,:::::,,:::::,>:  ---  ",
"  ---  :::::,,:::::,,:::::,,:::::,,:         ---  ",
"       :::::,,:::::,,:::::,,:::::,,:  << *<       ",
"  ---  :::::,,:::::,,:::::,,:::::,,:         ---  ",
"  ---  :::::,,:::::,,:::::,,:::::,,:::::,>:  ---  ",
"  ---  :::::,,:::::,,:::::,,:::::,,:::::,>:  ---  ",
"  %%%  :::::,,:::::,,:::::,,:::::,,:::::,>:  %%%  ",
"  ###  :::::,,:::::,,:::::,,:::::,,:::::,>:  ###  ",
"  ---  :::ooOOooo::,,:::::,,:::::,,:::::,>:  ---  ",
"  ---  :::::   X:::,,:::::,,:::::,,:::::,>:  ---  ",
"  ---  :::  ,,:; ::,,:::::,,:::::,,:::::,>:  ---  ",
"       :::  ,,:; ::,,:::::,,:::::,,:::::,>:       ",
"  ---  :::::   X:::,,:::::,,:::::,,:::::,>:  ---  ",
"  ---  :::::,,:::::,,:::::,,:::::,,:::::,>:  ---  ",
"  ---  :::::,,:::::,,:::::,,:::::,,:::::,>:  ---  ",
"  ---  :::::,,:::::,,:::::,,:::::,,:::::,>:  ---  ",
"       :::::,,:::::,,:::::,,:::::,,:::::,>:       ",
"  ---  :::::,,:::::,,:::::,,:::::,,:::::,>:  ---  ",
"  ---  :::::,,:::::,,:::::,,:::::,,:::::,>:  ---  ",
"  ---  :::::,,:::::,,:::::,,:::::,,:::::,>:  ---  ",
"  ---  :::::,,:::::,,:::::,,:::::,,:::::,>:  ---  ",
"       :::::,,:::::,,:::::,,:::::,,:::::,>:       ",
"  ---  :::::,,:::::,,:::::,,:::::,,:         ---  ",
"  ---  :::::,,:::::,,:::::,,:::::,,:  << *<  ---  ",
"  ---  :::::,,:::::,,:::::,,:::::,,:         ---  ",
"  ---  :::::,,:::::,,:::::,,:::::,,:::::,>:  ---  ",
"       :::::,,:::::,,:::::,,:::::,,:::::,>:       ",
"  ---  :::::,,:::::,,:::::,,:::::,,:::::,>:  ---  ",
"  ---  :::::,,:::::,,:::::,,:::::,,:::::,>:  ---  ",
"  ---  :::::,,:::::,,:::::,,:::::,,:::::,>:  ---  ",
"  ---  :::::,,:::::,,:::::,,:::::,,:::::,>:  ---  ",
"                                                  "
};
