/* XPM */
static char *result[] = {
/* columns rows colors chars-per-pixel */
"50 50 14 1 ",
"  c #5C3401",
". c #623801",
"X c #693C01",
"o c #6C3E01",
"O c #6F4200",
"+ c #704001",
"@ c #774401",
"# c #764600",
"$ c #754900",
"% c #7F602A",
"& c #854C01",
"* c #825600",
"= c #8D682A",
"- c #968453",
/* pixels */
"XXX   XXXXXXXXXXXXXXXXXXX***XXXXXX&&&&&&&   XXXXXX",
"XXX   XXXXXXXXXXXXXXXXXXX***XXXXXX&&&&&&&   XXXXXX",
"XXX   XXXXXXXXXXXXXXXXXXX***XXXXXX&&&&&&&   XXXXXX",
"XXX   XXXXXXXXXX      XXX***XXXXXX&&&&&&&      XXX",
"XXX   XXXXXXXXXX      XXX***XXXXXX&&&&&&&      XXX",
"XXX   XXXXXXXXXX      XXX***XXXXXX&&&&&&&      XXX",
"XXX      XXXXXXX&&&   XXXXXXXXXXXXXXXXXXXXXXXXXXXX",
"XXX      XXXXXXX&&&   XXXXXXXXXXXXXXXXXXXXXXXXXXXX",
"XXX      XXXXXXX&&&   XXXXXXXXXXXXXXXXXXXXXXXXXXXX",
"XXXXXX***XXX@&&&&&&XXXXXX   XXXXXXXXXXXXXXXXXXXXXX",
"XXXXXX***XXX@&&&&&&XXXXXX   XXXXXXXXXXXXXXXXXXXXXX",
"XXXXXX***XXX@&&&&&&XXXXXX   XXXXXXXXXXXXXXXXXXXXXX",
"XXXXXX***$$$#@@@@@@%%%%%%   $$$$$$$$$OXXXXXXXXXXXX",
"XXXXXX******$XXXXXX------   *********$XXXXXXXXXXXX",
"XXXXXX******$XXXXXX------   *********$XXXXXXXXXXXX",
"XXXXXX******$XXXXXX------   *********$XXXXXXXXXXXX",
"XXXXXXXXXXXXXXXXXXXXXX---   ******XXX.      XXXXXX",
"XXXXXXXXXXXXXXXXXXXXXX---   ******XXX.      XXXXXX",
"XXXXXXXXXXXXXXXXXXXXXX---   ******XXX.      XXXXXX",
"XXX      XXX@&&&XXXXXXXXXXXXXXXXXXXXX.      XXXXXX",
"XXX      XXX@&&&XXXXXXXXXXXXXXXXXXXXX.      XXXXXX",
"XXX      XXX@&&&XXXXXXXXXXXXXXXXXXXXX.      XXXXXX",
"XXX   XXX&&&&&&&&&&XXXXXXXXXXXXXXXXXX.      XXXXXX",
"XXX   XXX&&&&&&&&&&XXXXXXXXXXXXXXXXXX.      XXXXXX",
"XXX   XXX&&&&&&&&&&XXXXXXXXXXXXXXXXXX.      XXXXXX",
"XXX---XXX&&&&&&&XXXXXX---XXXXXX&&&&&&@XXXXXXXXXXXX",
"XXX---XXX&&&&&&&XXXXXX---XXXXXX&&&&&&@XXXXXXXXXXXX",
"XXX---XXX&&&&&&&XXXXXX---XXXXXX&&&&&&@XXXXXXXXXXXX",
"XXX------XXXXXXXXXXXXXXXXXXXXXX&&&XXXXXXXXXXXXXXXX",
"XXX------XXXXXXXXXXXXXXXXXXXXXX&&&XXXXXXXXXXXXXXXX",
"XXX------XXXXXXXXXXXXXXXXXXXXXX&&&XXXXXXXXXXXXXXXX",
"XXX------XXXXXXX******XXXXXXXXXXXXXXXXXXX---   XXX",
"XXX------XXXXXXX******XXXXXXXXXXXXXXXXXXX---   XXX",
"XXX------XXXXXXX******XXXXXXXXXXXXXXXXXXX---   XXX",
"XXXXXXXXXXXXXXXX******XXXXXX------XXXXXXXXXXXXXXXX",
"XXXXXXXXXXXXXXXX******XXXXXX------XXXXXXXXXXXXXXXX",
"XXXXXXXXXXXXXXXX******XXXXXX------XXXXXXXXXXXXXXXX",
"@@@XXXXXX.......$$$$$$XXXXXX---===@@@o...XXXXXXXXX",
"&&&XXXXXX       XXXXXXXXXXXX---&&&&&&+   XXXXXXXXX",
"&&&XXXXXX       XXXXXXXXXXXX---&&&&&&+   XXXXXXXXX",
"&&&XXXXXX       XXXXXXXXXXXX---&&&&&&+   XXXXXXXXX",
"XXXXXXXXX       XXX&&&&&&XXXXXX&&&&&&+   XXXXXXXXX",
"XXXXXXXXX       XXX&&&&&&XXXXXX&&&&&&+   XXXXXXXXX",
"XXXXXXXXX       XXX&&&&&&XXXXXX&&&&&&+   XXXXXXXXX",
"XXXXXXXXXXXX.   XXXXXX&&&XXXXXXXXX       XXXXXXXXX",
"XXXXXXXXXXXX.   XXXXXX&&&XXXXXXXXX       XXXXXXXXX",
"XXXXXXXXXXXX.   XXXXXX&&&XXXXXXXXX       XXXXXXXXX",
"XXXXXXXXXXXXXXXXXXXXXXXXXXXXXXXXXXXXXXXXXXXXXXXXXX",
"XXXXXXXXXXXXXXXXXXXXXXXXXXXXXXXXXXXXXXXXXXXXXXXXXX",
"XXXXXXXXXXXXXXXXXXXXXXXXXXXXXXXXXXXXXXXXXXXXXXXXXX"
};
