/* XPM */
static char *result[] = {
/* columns rows colors chars-per-pixel */
"32 48 6 1 ",
"  c #302020",
". c #507060",
"X c #90A080",
"o c #C8C8C8",
"O c gray94",
"+ c None",
/* pixels */
"++++++++++          ++++++++++++",
"++++++++++          ++++++++++++",
"++++++++  OOOOoooooo  ++++++++++",
"++++++++  OOOOoooooo  ++++++++++",
"++++++  OOOOOOOOoooooo  ++++++++",
"++++++  OOOOOOOOoooooo  ++++++++",
"++++  ..OOOOOOOOoooooo..  ++++++",
"++++  ..OOOOOOOOoooooo..  ++++++",
"++++  ..OOOOOOoooooooo..  ++++++",
"++++  ..OOOOOOoooooooo..  ++++++",
"++++  ..ooOOoooooooooo..  ++++++",
"++++  ..ooOOoooooooooo..  ++++++",
"++  oo..ooooooooooooXX..oo  ++++",
"++  oo..ooooooooooooXX..oo  ++++",
"++  oo..ooooooooooooXX..oo  ++++",
"++  oo..ooooooooooooXX..oo  ++++",
"++  oo..XXooooooooXXXX..oo  ++++",
"++  oo..XXooooooooXXXX..oo  ++++",
"++++  ..XXXXXXXXXXXX....  ++++++",
"++++  ..XXXXXXXXXXXX....  ++++++",
"++++++  ..XXXXXXXX....  ++++++++",
"++++++  ..XXXXXXXX....  ++++++++",
"++++++++              ++++++++++",
"++++++++              ++++++++++",
"++++++  ..oooooooooo..  ++++++++",
"++++++  ..oooooooooo..  ++++++++",
"++++  ..XX..oooooo..oo..  ++++++",
"++++  ..XX..oooooo..oo..  ++++++",
"++  oo..XXoo......oooo..XX  ++++",
"++  oo..XXoo......oooo..XX  ++++",
"++      XXoooooooooooo  XX  ++++",
"++      XXoooooooooooo  XX  ++++",
"  ooOO                    XX  ++",
"  ooOO                    XX  ++",
"  oooo..XXooooooooooXX  XXXX  ++",
"  oooo..XXooooooooooXX  XXXX  ++",
"++    ..XXooooooooooXX      ++++",
"++    ..XXooooooooooXX      ++++",
"++++++  ..XXXX  XX      ++++++++",
"++++++  ..XXXX  XX      ++++++++",
"++++++            oooo  ++++++++",
"++++++            oooo  ++++++++",
"++++  ......    oo..      ..++++",
"++++  ......    oo..      ..++++",
"......      ....  ......  ......",
"......      ....  ......  ......",
"++++..............      ....++++",
"++++..............      ....++++"
};
