/* XPM */
static char *result[] = {
/* columns rows colors chars-per-pixel */
"28 46 6 1 ",
"  c #302020",
". c #507060",
"X c #90A080",
"o c #C8C8C8",
"O c gray94",
"+ c None",
/* pixels */
"++++++++          ++++++++++",
"++++++++          ++++++++++",
"++++++  oooooooooo  ++++++++",
"++++++  oooooooooo  ++++++++",
"++    ooooooooooOOOO  ++++++",
"++    ooooooooooOOOO  ++++++",
"  ..ooooooooooooOOOOOO  ++++",
"  ..ooooooooooooOOOOOO  ++++",
"  oo....ooooooooooOOOO  ++++",
"  oo....ooooooooooOOOO  ++++",
"  oooooo....oooooooooo  ++++",
"  oooooo....oooooooooo  ++++",
"  oo  oooooo......ooXX  ++++",
"  oo  oooooo......ooXX  ++++",
"  oo  oo  oooooo..XXXX  ++++",
"  oo  oo  oooooo..XXXX  ++++",
"  oo  oo  oo  oo  XXXX  ++++",
"  oo  oo  oo  oo  XXXX  ++++",
"++              XXXXXX  ++++",
"++              XXXXXX  ++++",
"++++  XXXXXXXXXXXXXX  ++++++",
"++++  XXXXXXXXXXXXXX  ++++++",
"++++++  XXXXXXXXXX  ++++++++",
"++++++  XXXXXXXXXX  ++++++++",
"++++++++          ++++++++++",
"++++++++          ++++++++++",
"++++++++  oo  oooo  ++++++++",
"++++++++  oo  oooo  ++++++++",
"++++++  oooo  oooooo  ++++++",
"++++++  oooo  oooooo  ++++++",
"++++++  ......  oo..  ++++++",
"++++++  ......  oo..  ++++++",
"++++++  oooooo  ..oooo  ++++",
"++++++  oooooo  ..oooo  ++++",
"++++++  oooooooo  oooo  ++++",
"++++++  oooooooo  oooo  ++++",
"++++++  ..........    ++++++",
"++++++  ..........    ++++++",
"++++++++  oooooo  ++++++++++",
"++++++++  oooooo  ++++++++++",
"++++++            ++++++++++",
"++++++            ++++++++++",
"....  OOooooXXXX  ..........",
"....  OOooooXXXX  ..........",
"++++..          ........++++",
"++++..          ........++++"
};
