/* XPM */
static char *result[] = {
/* columns rows colors chars-per-pixel */
"50 50 221 2 ",
"   c #2B1919",
".  c #2B1A1A",
"X  c #2C1919",
"o  c #2C1A1A",
"O  c #2C1C1B",
"+  c #2D1C1C",
"@  c #2F1D1D",
"#  c #2E1F1E",
"$  c #31211F",
"%  c #31221F",
"&  c #2F2120",
"*  c #2F2220",
"=  c #2F2321",
"-  c #322220",
";  c #332323",
":  c #302422",
">  c #312724",
",  c #312725",
"<  c #352424",
"1  c #322825",
"2  c #322A27",
"3  c #352825",
"4  c #382A26",
"5  c #392B27",
"6  c #342E2A",
"7  c #342F2B",
"8  c #3A2A2A",
"9  c #3C2D2B",
"0  c #3F2F2F",
"q  c #36332E",
"w  c #36352F",
"e  c #3C302A",
"r  c #3E332D",
"t  c #393A34",
"y  c #3C3B34",
"u  c #393C35",
"i  c #3A3E36",
"p  c #423730",
"a  c #443B33",
"s  c #453B33",
"d  c #4A3C3C",
"f  c #4D3F3F",
"g  c #3B4038",
"h  c #3B4139",
"j  c #3D463D",
"k  c #45453C",
"l  c #4D463B",
"z  c #4F4A3E",
"x  c #504B3F",
"c  c #3F4A40",
"v  c #3F4A41",
"b  c #444741",
"n  c #4E4040",
"m  c #404D43",
"M  c #4D4D41",
"N  c #504343",
"B  c #514C40",
"V  c #534E41",
"C  c #544F42",
"Z  c #5C4E4E",
"A  c #415045",
"S  c #435348",
"D  c #44554A",
"F  c #4F5649",
"G  c #465B4E",
"H  c #565345",
"J  c #585547",
"K  c #595648",
"L  c #5B594A",
"P  c #5D5B4C",
"I  c #5E5D4D",
"U  c #495D50",
"Y  c #5D5050",
"T  c #5F5353",
"R  c #565E57",
"E  c #605F4E",
"W  c #605F4F",
"Q  c #645E56",
"!  c #645858",
"~  c #665B5B",
"^  c #6A5F5F",
"/  c #4A6657",
"(  c #4B6758",
")  c #4C6B5B",
"_  c #59615A",
"`  c #636352",
"'  c #646553",
"]  c #686B57",
"[  c #60605C",
"{  c #69655B",
"}  c #696C58",
"|  c #6A6E5A",
" . c #6B6E5A",
".. c #68745F",
"X. c #576F62",
"o. c #4F7060",
"O. c #4F7160",
"+. c #537462",
"@. c #537464",
"#. c #567666",
"$. c #5B7A66",
"%. c #5D7B6C",
"&. c #5E7C6D",
"*. c #676260",
"=. c #6C6161",
"-. c #6F6565",
";. c #676A65",
":. c #706666",
">. c #756C6C",
",. c #786E6E",
"<. c #786F6F",
"1. c #717660",
"2. c #737365",
"3. c #747F67",
"4. c #777F67",
"5. c #7A7171",
"6. c #7B7272",
"7. c #7D7474",
"8. c #7F7878",
"9. c #817777",
"0. c #817979",
"q. c #817A7A",
"w. c #847C7C",
"e. c #67836C",
"r. c #6B866E",
"t. c #73876E",
"y. c #7E876D",
"u. c #7F896E",
"i. c #658173",
"p. c #6B8578",
"a. c #6D877A",
"s. c #788175",
"d. c #748C72",
"f. c #788F74",
"g. c #728A7E",
"h. c #778E7D",
"j. c #7C9276",
"k. c #7E9377",
"l. c #849074",
"z. c #859174",
"x. c #8A987A",
"c. c #8D9B7C",
"v. c #758C80",
"b. c #768D80",
"n. c #7D9281",
"m. c #7A9085",
"M. c #7C9287",
"N. c #7D9288",
"B. c #828380",
"V. c #878080",
"C. c #8A8382",
"Z. c #8B8484",
"A. c #8E8787",
"S. c #938C8C",
"D. c #8F9284",
"F. c #859885",
"G. c #889A80",
"H. c #889A83",
"J. c #80948A",
"K. c #84978B",
"L. c #84978D",
"P. c #86988F",
"I. c #939B87",
"U. c #95908E",
"Y. c #979A8E",
"T. c #8C9D94",
"R. c #979292",
"E. c #979491",
"W. c #9A9595",
"Q. c #9A9F9C",
"!. c #A19D9D",
"~. c #91A181",
"^. c #9EA793",
"/. c #93A29B",
"(. c #99A69D",
"). c #98A59E",
"_. c #99A69F",
"`. c #A2AD97",
"'. c #A5AB9D",
"]. c #A6B09C",
"[. c #9BA8A1",
"{. c #9DA9A3",
"}. c #A1A4A1",
"|. c #A7A4A4",
" X c #A5ABA7",
".X c #A8ADA0",
"XX c #A8ACA1",
"oX c #A2ADA8",
"OX c #A3AEA9",
"+X c #A4AEA9",
"@X c #ABA8A8",
"#X c #A9B2A0",
"$X c #A6B0AB",
"%X c #AFB3A9",
"&X c #AAB3AE",
"*X c #B0B7A9",
"=X c #B2B0AF",
"-X c #B4BAAE",
";X c #AEB6B2",
":X c #B2B0B0",
">X c #B5B3B3",
",X c #B0B7B3",
"<X c #B6B4B4",
"1X c #B8B6B6",
"2X c #B2B8B5",
"3X c #B6BBB9",
"4X c #BCBABA",
"5X c #B9BEBB",
"6X c #BFBEBE",
"7X c #B3C0BA",
"8X c #C1C3C2",
"9X c #C4C3C3",
"0X c #C3C4C4",
"qX c #C5C6C4",
"wX c #C5C6C6",
"eX c gray79",
"rX c LightGray",
"tX c #DADADA",
"yX c #E1E1E1",
"uX c gray94",
"iX c None",
/* pixels */
"iXiXiXiXiXiXiXiXiXiXiXiXiXiXiXiXo o o o o o o o o o o o o o o iXiXiXiXiXiXiXiXiXiXiXiXiXiXiXiXiXiXiX",
"iXiXiXiXiXiXiXiXiXiXiXiXiXiXiXiXo o o o o o o o o o o o o o o iXiXiXiXiXiXiXiXiXiXiXiXiXiXiXiXiXiXiX",
"iXiXiXiXiXiXiXiXiXiXiXiXiX    ! >X>X>X>X>X>X>X>X>X>X>X=XI.l.l.z     iXiXiXiXiXiXiXiXiXiXiXiXiXiXiXiX",
"iXiXiXiXiXiXiXiXiXiXiXiXiXo o ~ eXeXeXeXeXeXeXeXeXeXeXqX`.~.~.B o o iXiXiXiXiXiXiXiXiXiXiXiXiXiXiXiX",
"iXiXiXiXiXiXiXiXiXiX. . ^ @X@X<XeXeXeXeXeX,Xg.i.g.3XeXqX`.~.~.z.y.y.C . . iXiXiXiXiXiXiXiXiXiXiXiXiX",
"iXiXiXiXiXiXiXiXiX  o o :.eXeXeXeXeXeXeXeX&X&.O.&.2XeXqX`.~.~.~.~.~.J o o   iXiXiXiXiXiXiXiXiXiXiXiX",
"iXiXiXiXiXiXiXX X K 1.1.Y.eXeXeXeXeX;Xm.v.J.{.oX{.N.v.b.G.~.~.~.~.~.u.1.1.K X X iXiXiXiXiXiXiXiXiXiX",
"iXiXiXiXiXiX. o o ' ~.~.#XeXeXeXeXeXoX#.O.a.5XeX5Xi.O.+.j.~.~.~.~.~.~.~.~.' o o . iXiXiXiXiXiXiXiXiX",
"iXiXiXiXiXiX. o o ' ~.~.H.M.M.M.M.M.P._.[.$X0XeX0XOX[.).h.e.e.e.e.e.k.~.~.' o o . iXiXiXiXiXiXiXiXiX",
"iXiXiXiXiXiX. o o ' ~.~.d.O.O.O.O.O.v.8XeXeXeXeXeXeXeX8Xv.O.O.O.O.O.d.~.~.' o o . iXiXiXiXiXiXiXiXiX",
"iXiXiXiXiXiX. o o F r.r.n./././././.+XwXeX:X6.:.6.1XeXwX+X/././././.n.r.r.F o o . iXiXiXiXiXiXiXiXiX",
"iXiXiXiXiXiX. o o v O.O.L.eXeXeXeXeXeXeXeX!.0 o 0 @XeXeXeXeXeXeXeXeXL.O.O.v o o . iXiXiXiXiXiXiXiXiX",
"iXiXiXiXiXiXV I I s.T.T.$XeXeX@X5.5.S.9XeX!.0 o 0 @XeX9XS.5.5.@XeXeX$XT.T.s.I I V iXiXiXiXiXiXiXiXiX",
"iXiXiXX o o  .~.~.*XeXeXeXeXeXA.o o Y 6XeX!.0 o 0 @XeX6XY o o A.eXeXeXeXeX*X~.~. .o o X iXiXiXiXiXiX",
"iXiXiXX o o  .~.~.D.A.A.|.eXeXA.o o Y 6XeX!.0 o 0 @XeX6XY o o A.eXeX|.A.A.D.~.~. .o o X iXiXiXiXiXiX",
"iXiXiXX o o  .~.~.J o o :.eXeXA.o o Y 6XeX!.0 o 0 @XeX6XY o o A.eXeX:.o o J ~.~. .o o X iXiXiXiXiXiX",
"iXiXiXX o o  .~.~.J o o :.eXeXA.o o Y 6XeX!.0 o 0 @XeX6XY o o A.eXeX:.o o J ~.~. .o o X iXiXiXiXiXiX",
"iXiXiXX o o  .~.~.J o o :.eXeXA.o o Y 6XeX!.0 o 0 @XeX6XY o o A.eXeX:.o o J ~.~. .o o X iXiXiXiXiXiX",
"iXiXiX  X X E 4.4.l o o T !.!.>.o o N W.!.w.8 o 8 Z.!.W.N o o >.!.!.T o o l 4.4.E X X   iXiXiXiXiXiX",
"iXiXiXiXiXiX. o o o o o o o o o o o o o o o o o o o o o o o o o o o o o o o o o . iXiXiXiXiXiXiXiXiX",
"iXiXiXiXiXiXo       o o $ 4 4 4 4 4 4 4 4 4 4 4 4 4 4 4 4 4 4 4 4 4 $ o o       o iXiXiXiXiXiXiXiXiX",
"iXiXiXiXiXiXiXiXiX  o o J ~.~.~.~.~.~.~.~.~.~.~.~.~.~.~.~.~.~.~.~.~.J o o   iXiXiXiXiXiXiXiXiXiXiXiX",
"iXiXiXiXiXiXiXiXiXX o o H x.x.c.~.~.~.~.~.~.~.~.~.~.~.~.~.~.~.c.x.x.H o o X iXiXiXiXiXiXiXiXiXiXiXiX",
"iXiXiXiXiXiXiXiXiXiXiXiXiXo o B ~.~.~.~.~.~.~.~.~.~.~.~.~.~.~.B o o iXiXiXiXiXiXiXiXiXiXiXiXiXiXiXiX",
"iXiXiXiXiXiXiXiXiXiXiXiXiXo o B ~.~.~.~.~.~.~.~.~.~.~.~.~.~.~.B o o iXiXiXiXiXiXiXiXiXiXiXiXiXiXiXiX",
"iXiXiXiXiXiXiXiXiXX o o H x.x.} - - - - - - - - - - - - - - - } x.x.H o o X iXiXiXiXiXiXiXiXiXiXiXiX",
"iXiXiXiXiXiXiXiXiX  o o J ~.~. .o o o o o o o o o o o o o o o  .~.~.J o o   iXiXiXiXiXiXiXiXiXiXiXiX",
"iXiXiXiXiXiXo     7.>X>X'.~.~.^.>X>X>X>X>XQ.X./ X.}.>X>X>X>X>X^.~.~.'.>X>X7.    o iXiXiXiXiXiXiXiXiX",
"iXiXiXiXiXiX. o o w.eXeX*X~.~.].eXeXeXeXeX&X&.O.&.2XeXeXeXeXeX].~.~.*XeXeXw.o o . iXiXiXiXiXiXiXiXiX",
"iXiXiX  . . q.@X@X4XeXeX(.$.$.K.eXeXeXeXeX&X&.O.&.2XeXeXeXeXeXK.$.$.(.eXeXXXy.y.` . .   iXiXiXiXiXiX",
"iXiXiXX o o A.eXeXeXeXeX/.O.O.M.eXeXeXeXeX&X&.O.&.2XeXeXeXeXeXM.O.O./.eXeX*X~.~. .o o X iXiXiXiXiXiX",
"iXiXiXX o o _ v.v.;.Y Y R O.O.%.v.v.v.v.v.p.@.O.@.a.v.v.v.v.v.%.O.O.R Y Y 2.~.~. .o o X iXiXiXiXiXiX",
"iXiXiXX o o A O.O.g o o g O.O.O.O.O.O.O.O.O.O.O.O.O.O.O.O.O.O.O.O.O.g o o J ~.~. .o o X iXiXiXiXiXiX",
". . < <.A.A. X7X7X*.o o M f.f.F.[.[.[.[.[.[.[.[.[.[.[.[.[.[.[.F.f.f.M o o e B B L  . .P % . iXiXiXiX",
"o o < R.eXeXyXuXuX9.o o J ~.~.].eXeXeXeXeXeXeXeXeXeXeXeXeXeXeX].~.~.J o o o o o B ~.~.1.- o X iXiXiX",
"o o < R.eXeXrXtXtX,.o o J ~.~.].eXeXeXeXeXeXeXeXeXeXeXeXeXeXeX].~.~.J o o a ' ' W J J x iXiXiXiXiXiX",
"o o < R.eXeXeXeXeX:.o o J ~.~.].eXeXeXeXeXeXeXeXeXeXeXeXeXeXeX].~.~.J o o J ~.~. .o o X iXiXiXiXiXiX",
"iXiX< =.5.5.5.5.5.n o o p I I { 5.5.S.9XeXeXeXeXeXeXeX9XS.5.5.{ I I p o o p I I V iXiXiXiXiXiXiXiXiX",
"iXiXiXX o o o o o o o o o o o o o o Y 6XeXeXeXeXeXeXeX6XY o o o o o o o o o o o . iXiXiXiXiXiXiXiXiX",
"iXiXiXiX. . . . .   o o e B B B B B Q C.A.E.%X-X%XU.A.V.d o o N ~ ~ ~ ~ ~ ~ ~ ~ Z iXiXiXiXiXiXiXiXiX",
"iXiXiXiXiXiXiXiXiX  o o J ~.~.~.~.~.1.- o s l.~.l.r o o o o o A.eXeXeXeXeXeXeXeXA.o o X iXiXiXiXiXiX",
"iXiXiXiXiXiXiXiXiX  o o J ~.~.~.~.~.3.y w k | 1.] 5 o @ f Y Y 0.R.R.R.R.R.R.R.R.-.o o X iXiXiXiXiXiX",
"iXiXiXiXiXiXiXiXiX  o o J ~.~.~.~.~.j.+.O.G : o o o o < R.eXeX~ o o o o o o o o o o o X iXiXiXiXiXiX",
"iXiXiXiXiXiXiXiXiX, o o l 4.4.4.4.4...U G v * o o o o ; B.&X&X[ 7 7 = o o = 7 7 > o o X iXiXiXiXiXiX",
"iXiXiXiXiXiXo.O.O.g o o o o o o o o o o o o o o o o o # D O.O.O.O.O.g o o g O.O.A o o X iXiXiXiXiXiX",
"iXiXiXiXiXiX( / / b 0 0 9 4 4 3 : : & o o + = : = O o # D O.O.O.O.O.j : : h / / m : : 1 iXiXiXiXiXiX",
"O.O.O.O.O.O.t o o w.eXeX*X~.~.f.O.O.D # o 7 / O./ 2 o # D O.O.O.O.O.O.O.O.v o o t O.O.O.O.O.O.O.O.O.",
"o.o.o.o.o.o.u # # 8.6X6X.Xx.x.t.) ) S : # q / O./ 6 # : S ) ) ) ) ) ) ) ) c # # i O.O.o.O.o.o.o.o.o.",
"iXiXiXiXiXiXo.O.O.g o o o o o o o o w ) O.O.O.O.O.O.O.) w o o o o o o o o g O.O.O.O.O.o.iXiXiXiXiXiX",
"iXiXiXiXiXiXo.O.O.g o o o o o o o o w ) O.O.O.O.O.O.O.) w o o o o o o o o g O.O.O.O.O.o.iXiXiXiXiXiX"
};
