/* XPM */
static char *result[] = {
/* columns rows colors chars-per-pixel */
"32 48 6 1 ",
"  c #302020",
". c #507060",
"X c #90A080",
"o c #C8C8C8",
"O c gray94",
"+ c None",
/* pixels */
"++++++++++          ++++++++++++",
"++++++++++          ++++++++++++",
"++++++++  ooooooooXX  ++++++++++",
"++++++++  ooooooooXX  ++++++++++",
"++++++  oooooo..ooXXXX  ++++++++",
"++++++  oooooo..ooXXXX  ++++++++",
"++++  XXoooo..oo..XXXXXX  ++++++",
"++++  XXoooo..oo..XXXXXX  ++++++",
"++++  XX....oooooo....XX  ++++++",
"++++  XX....oooooo....XX  ++++++",
"++++  ..oooooo  oooooo..  ++++++",
"++++  ..oooooo  oooooo..  ++++++",
"++  XXoooo  oo  oo  ooooXX  ++++",
"++  XXoooo  oo  oo  ooooXX  ++++",
"++  XX  oo  oo  oo  oo  XX  ++++",
"++  XX  oo  oo  oo  oo  XX  ++++",
"++  XX  oo  oo  oo  oo  XX  ++++",
"++  XX  oo  oo  oo  oo  XX  ++++",
"++++                      ++++++",
"++++                      ++++++",
"++++++  XXXXXXXXXXXXXX  ++++++++",
"++++++  XXXXXXXXXXXXXX  ++++++++",
"++++++++  XXXXXXXXXX  ++++++++++",
"++++++++  XXXXXXXXXX  ++++++++++",
"++++++  XX          XX  ++++++++",
"++++++  XX          XX  ++++++++",
"++++  ooXXoooo..ooooXXoo  ++++++",
"++++  ooXXoooo..ooooXXoo  ++++++",
"++  oooo..oooo..oooo..ooXX  ++++",
"++  oooo..oooo..oooo..ooXX  ++++",
"++  ..  ..............  XX  ++++",
"++  ..  ..............  XX  ++++",
"  ooOO  XXooooooooooXX    XX  ++",
"  ooOO  XXooooooooooXX    XX  ++",
"  oooo  XXooooooooooXX  XX  ++++",
"  oooo  XXooooooooooXX  XX  ++++",
"++          oooooo        ++++++",
"++          oooooo        ++++++",
"++++++  XXXX  XX    oooooo  ++++",
"++++++  XXXX  XX    oooooo  ++++",
"++++++  XXXX..    oo        ++++",
"++++++  XXXX..    oo        ++++",
"++++..            ....  ..  ++++",
"++++..            ....  ..  ++++",
"....  ooXX..  ..  ......  ......",
"....  ooXX..  ..  ......  ......",
"++++..      ......      ....++++",
"++++..      ......      ....++++"
};
