/* XPM */
static char *result[] = {
/* columns rows colors chars-per-pixel */
"28 46 6 1 ",
"  c #302020",
". c #507060",
"X c #90A080",
"o c #C8C8C8",
"O c gray94",
"+ c None",
/* pixels */
"++++++++++          ++++++++",
"++++++++++          ++++++++",
"++++++++  oooooooooo  ++++++",
"++++++++  oooooooooo  ++++++",
"++++++  OOOOoooooooooo    ++",
"++++++  OOOOoooooooooo    ++",
"++++  OOOOOOoooooooooooo..  ",
"++++  OOOOOOoooooooooooo..  ",
"++++  OOOOoooooooooo....oo  ",
"++++  OOOOoooooooooo....oo  ",
"++++  oooooooooo....oooooo  ",
"++++  oooooooooo....oooooo  ",
"++++  XXoo......oooooo  oo  ",
"++++  XXoo......oooooo  oo  ",
"++++  XXXX..oooooo  oo  oo  ",
"++++  XXXX..oooooo  oo  oo  ",
"++++  XXXX  oo  oo  oo  oo  ",
"++++  XXXX  oo  oo  oo  oo  ",
"++++  XXXXXX              ++",
"++++  XXXXXX              ++",
"++++++  XXXXXXXXXXXXXX  ++++",
"++++++  XXXXXXXXXXXXXX  ++++",
"++++++++  XXXXXXXXXX  ++++++",
"++++++++  XXXXXXXXXX  ++++++",
"++++++++++          ++++++++",
"++++++++++          ++++++++",
"++++++++  oooo  oo  ++++++++",
"++++++++  oooo  oo  ++++++++",
"++++++  oooooo  oooo  ++++++",
"++++++  oooooo  oooo  ++++++",
"++++++  ..oo  ......  ++++++",
"++++++  ..oo  ......  ++++++",
"++++  oooo..  oooooo  ++++++",
"++++  oooo..  oooooo  ++++++",
"++++  oooo  oooooooo  ++++++",
"++++  oooo  oooooooo  ++++++",
"++++++    ..........  ++++++",
"++++++    ..........  ++++++",
"++++++++++  oooooo  ++++++++",
"++++++++++  oooooo  ++++++++",
"++++++++++            ++++++",
"++++++++++            ++++++",
"..........  XXXXooooOO  ....",
"..........  XXXXooooOO  ....",
"++++........          ..++++",
"++++........          ..++++"
};
