/* XPM */
static char *result[] = {
/* columns rows colors chars-per-pixel */
"50 50 6 1 ",
"  c #000D0E",
". c #01191E",
"X c #032E27",
"o c #03262E",
"O c #074F41",
"+ c #06404E",
/* pixels */
"                                                  ",
"                                                  ",
"++++++++ OO++++++++ OO+++++++++  O++++++++++ OO+++",
"++++++++ OO++++++++ OO+++++++++  O++++++++++ OO+++",
"++++++++ OO++++++++ OO+++++++++  O++++++++++ OO+++",
"OOO+++++ OOOOOOO+++ OOOOOOOO+++  OOOOOOOO+++ OOOOO",
"                                                  ",
"                                                  ",
"  O+++++++++o OO+++++++++  O+++++++++o OO+++++++++",
"  O+++++++++o OO+++++++++  O+++++++++o OO+++++++++",
"  O+++++++++o OO+++++++++  O+++++++++o OO+++++++++",
"  OOOOOOO+++o OOOOOOOO+++  OOOOOOO+++o OOOOOOOO+++",
"  XXXXXXXooo. XXXXXXXXooo  XXXXXXXooo. XXXXXXXXooo",
"                                                  ",
"++++++  O++++++++++ OO+++++++++  O++++++++++ OO+++",
"++++++  O++++++++++ OO+++++++++  O++++++++++ OO+++",
"++++++  O++++++++++ OO+++++++++  O++++++++++ OO+++",
"OOO+++  OOOOOOOO+++ OOOOOOOO+++  OOOOOOOO+++ OOOOO",
"OOO+++  OOOOOOOO+++ OOOOOOOO+++  OOOOOOOO+++ OOOOO",
"                                                  ",
"  O+++++++++o OO+++++++++  O+++++++++o OO+++++++++",
"  O+++++++++o OO+++++++++  O+++++++++o OO+++++++++",
"  O+++++++++o OO+++++++++  O+++++++++o OO+++++++++",
"  OOOOOOO+++o OOOOOOOO+++  OOOOOOO+++o OOOOOOOO+++",
"  OOOOOOO+++o OOOOOOOO+++  OOOOOOO+++o OOOOOOOO+++",
"                                                  ",
"                                                  ",
"++++++  O++++++++++ OO+++++++++  O++++++++++ OO+++",
"++++++  O++++++++++ OO+++++++++  O++++++++++ OO+++",
"++++++  O++++++++++ OO+++++++++  O++++++++++ OO+++",
"OOO+++  OOOOOOOO+++ OOOOOOOO+++  OOOOOOOO+++ OOOOO",
"                                                  ",
"                                                  ",
"  O+++++++++o OO+++++++++  O+++++++++o OO+++++++++",
"  O+++++++++o OO+++++++++  O+++++++++o OO+++++++++",
"  O+++++++++o OO+++++++++  O+++++++++o OO+++++++++",
"  OOOOOOO+++o OOOOOOOO+++  OOOOOOO+++o OOOOOOOO+++",
"  XXXXXXXooo. XXXXXXXXooo  XXXXXXXooo. XXXXXXXXooo",
"                                                  ",
"++++++  O++++++++++ OO+++++++++  O++++++++++ OO+++",
"++++++  O++++++++++ OO+++++++++  O++++++++++ OO+++",
"++++++  O++++++++++ OO+++++++++  O++++++++++ OO+++",
"OOO+++  OOOOOOOO+++ OOOOOOOO+++  OOOOOOOO+++ OOOOO",
"OOO+++  OOOOOOOO+++ OOOOOOOO+++  OOOOOOOO+++ OOOOO",
"                                                  ",
"  O+++++++++o OO+++++++++  O+++++++++o OO+++++++++",
"  O+++++++++o OO+++++++++  O+++++++++o OO+++++++++",
"  O+++++++++o OO+++++++++  O+++++++++o OO+++++++++",
"  OOOOOOO+++o OOOOOOOO+++  OOOOOOO+++o OOOOOOOO+++",
"  OOOOOOO+++o OOOOOOOO+++  OOOOOOO+++o OOOOOOOO+++"
};
